Coordinates
version=1
nRows=60
nColumns=12
inDegrees=yes

Units are S.I. units (second, meters, Newtons, ...)
Angles are in degrees

endheader
time	SC_y	SC_z	SC_x	AC_y	AC_z	AC_x	GH_y	GH_z	GH_yy	EL_x	PS_y
       0.0              -49.06          32.09          54.39          66.17          6.391         -2.896          124.1          62.32         -98.46          139.6          104.7
   0.02766              -49.05          32.08          54.39          66.17          6.391         -2.898          124.1          62.31         -98.45          139.6          104.7
   0.05532              -49.05          32.08           54.4          66.17          6.391           -2.9          124.1           62.3         -98.44          139.6          104.7
   0.08298              -49.05          32.08           54.4          66.16          6.391         -2.902          124.0          62.29         -98.42          139.6          104.7
    0.1106              -49.04          32.08          54.41          66.16          6.391         -2.904          124.0          62.28         -98.41          139.6          104.7
    0.1383              -49.04          32.08          54.41          66.16          6.392         -2.907          124.0          62.27         -98.39          139.6          104.7
     0.166              -49.04          32.07          54.42          66.15          6.392         -2.909          123.9          62.26         -98.38          139.6          104.6
    0.1936              -49.03          32.07          54.43          66.15          6.392         -2.912          123.9          62.25         -98.36          139.5          104.6
    0.2213              -49.03          32.07          54.43          66.14          6.392         -2.915          123.9          62.24         -98.35          139.5          104.6
    0.2489              -49.02          32.06          54.44          66.14          6.393         -2.918          123.8          62.22         -98.33          139.5          104.6
    0.2766              -49.02          32.06          54.45          66.13          6.393         -2.921          123.8          62.21         -98.31          139.5          104.6
    0.3043              -49.01          32.06          54.46          66.13          6.393         -2.925          123.7          62.19         -98.28          139.5          104.5
    0.3319               -49.0          32.05          54.47          66.12          6.394         -2.929          123.7          62.18         -98.26          139.5          104.5
    0.3596               -49.0          32.05          54.48          66.11          6.394         -2.933          123.6          62.16         -98.23          139.4          104.5
    0.3872              -48.99          32.04          54.49           66.1          6.394         -2.938          123.5          62.14         -98.21          139.4          104.4
    0.4149              -48.98          32.04           54.5           66.1          6.395         -2.943          123.5          62.12         -98.18          139.4          104.4
    0.4426              -48.97          32.03          54.51          66.09          6.395         -2.948          123.4          62.09         -98.14          139.3          104.3
    0.4702              -48.96          32.02          54.53          66.08          6.396         -2.954          123.3          62.07         -98.11          139.3          104.3
    0.4979              -48.95          32.02          54.54          66.07          6.397         -2.961          123.2          62.04         -98.07          139.3          104.3
    0.5255              -48.94          32.01          54.56          66.06          6.397         -2.968          123.1          62.01         -98.03          139.2          104.2
    0.5532              -48.93           32.0          54.58          66.04          6.398         -2.976          123.0          61.98         -97.98          139.2          104.1
    0.5808              -48.92          31.99           54.6          66.03          6.399         -2.984          122.9          61.94         -97.93          139.2          104.1
    0.6085               -48.9          31.98          54.62          66.01            6.4         -2.994          122.7           61.9         -97.87          139.1          104.0
    0.6362              -48.89          31.97          54.65           66.0            6.4         -3.004          122.6          61.86         -97.81          139.0          103.9
    0.6638              -48.87          31.96          54.67          65.98          6.402         -3.016          122.4          61.81         -97.74          139.0          103.8
    0.6915              -48.85          31.95           54.7          65.96          6.403         -3.029          122.2          61.75         -97.66          138.9          103.7
    0.7191              -48.82          31.93          54.74          65.93          6.404         -3.044          122.0          61.69         -97.57          138.8          103.6
    0.7468               -48.8          31.91          54.78          65.91          6.406          -3.06          121.8          61.62         -97.48          138.7          103.5
    0.7745              -48.77          31.89          54.82          65.88          6.407         -3.079          121.5          61.54         -97.37          138.6          103.4
    0.8021              -48.73          31.87          54.87          65.84          6.409           -3.1          121.2          61.45         -97.24          138.5          103.2
    0.8298               -48.7          31.84          54.93          65.81          6.411         -3.124          120.8          61.35          -97.1          138.4          103.0
    0.8574              -48.65          31.82          54.99          65.76          6.414         -3.152          120.4          61.23         -96.93          138.3          102.8
    0.8851               -48.6          31.78          55.07          65.71          6.417         -3.183          120.0           61.1         -96.74          138.1          102.6
    0.9128              -48.54          31.74          55.15          65.65           6.42          -3.22          119.4          60.94         -96.52          137.9          102.3
    0.9404              -48.48           31.7          55.26          65.58          6.424         -3.264          118.8          60.76         -96.26          137.6          102.0
    0.9681              -48.39          31.64          55.38           65.5          6.429         -3.315          118.1          60.54         -95.95          137.4          101.6
    0.9957               -48.3          31.58          55.52           65.4          6.434         -3.376          117.2          60.29         -95.59          137.0          101.1
     1.023              -48.18           31.5          55.69          65.28          6.441         -3.448          116.1          59.98         -95.16          136.6          100.6
     1.051              -48.04          31.41           55.9          65.14          6.449         -3.536          114.9           59.6         -94.63          136.2          99.88
     1.079              -47.87          31.29          56.15          64.97          6.458         -3.644          113.3          59.15         -93.99          135.6          99.07
     1.106              -47.66          31.15          56.46          64.76           6.47         -3.777          111.4          58.59         -93.19          134.9          98.06
     1.134               -47.4          30.97          56.85          64.49          6.485         -3.942          109.0          57.88          -92.2          134.0           96.8
     1.162              -47.07          30.75          57.35          64.16          6.504         -4.151          106.0           57.0         -90.96          132.8          95.22
     1.189              -46.65          30.47          57.97          63.73          6.528         -4.416          102.1          55.88         -89.37          131.4           93.2
     1.217              -46.11          30.11          58.77          63.18          6.559         -4.755          97.24          54.44         -87.34          129.6          90.63
     1.245              -45.43          29.65           59.8          62.48          6.599         -5.191          90.94          52.59         -84.74          127.2          87.32
     1.272              -44.54          29.06          61.11          61.59          6.649         -5.747          82.89          50.24         -81.41          124.2          83.09
       1.3              -43.44          28.31          62.75          60.47          6.712         -6.446          72.78          47.27         -77.23          120.4          77.78
     1.328              -42.09          27.41          64.76           59.1           6.79         -7.299          60.45          43.66         -72.13          115.8          71.31
     1.355              -40.52          26.36          67.09          57.51          6.879         -8.287          46.16          39.48         -66.23          110.4           63.8
     1.383              -38.83          25.22          69.61          55.79          6.976         -9.357          30.68          34.95         -59.83          104.7          55.68
     1.411              -37.14          24.08          72.13          54.07          7.073         -10.43          15.21          30.41         -53.44          98.86          47.56
     1.438              -35.57          23.03          74.46          52.48          7.163         -11.41         0.9216          26.23         -47.53          93.51          40.05
     1.466              -34.23          22.13          76.46          51.11           7.24         -12.27         -11.41          22.62         -42.43           88.9          33.58
     1.494              -33.12          21.39          78.11          49.99          7.303         -12.97         -21.52          19.65         -38.25          85.11          28.27
     1.521              -32.24          20.79          79.42           49.1          7.354         -13.52         -29.57           17.3         -34.92           82.1          24.04
     1.549              -31.55          20.33          80.45           48.4          7.393         -13.96         -35.87          15.45         -32.32          79.74          20.73
     1.577              -31.01          19.97          81.25          47.85          7.424          -14.3         -40.78          14.01         -30.29          77.91          18.16
     1.604              -30.59          19.69          81.87          47.43          7.448         -14.56         -44.61          12.89         -28.71          76.47          16.14
     1.632              -30.26          19.47          82.36          47.09          7.467         -14.77         -47.63          12.01         -27.46          75.34          14.56
